HIERARCHY
ROOT Hips
{
	OFFSET 0.00000 0.00000 0.00000
	CHANNELS 6 Xposition Yposition Zposition Zrotation Yrotation Xrotation 
	JOINT LHipJoint
	{
		OFFSET 0 0 0
		CHANNELS 3 Zrotation Yrotation Xrotation
		JOINT LeftUpLeg
		{
			OFFSET 1.56857 -1.73443 1.15205
			CHANNELS 3 Zrotation Yrotation Xrotation
			JOINT LeftLeg
			{
				OFFSET 2.39362 -6.57643 0.00000
				CHANNELS 3 Zrotation Yrotation Xrotation
				JOINT LeftFoot
				{
					OFFSET 2.50952 -6.89485 0.00000
					CHANNELS 3 Zrotation Yrotation Xrotation
					JOINT LeftToeBase
					{
						OFFSET 0.17171 -0.47178 1.88682
						CHANNELS 3 Zrotation Yrotation Xrotation
						End Site
						{
							OFFSET 0.00000 -0.00000 0.98146
						}
					}
				}
			}
		}
	}
	JOINT RHipJoint
	{
		OFFSET 0 0 0
		CHANNELS 3 Zrotation Yrotation Xrotation
		JOINT RightUpLeg
		{
			OFFSET -1.28153 -1.73443 1.15205
			CHANNELS 3 Zrotation Yrotation Xrotation
			JOINT RightLeg
			{
				OFFSET -2.26861 -6.23296 0.00000
				CHANNELS 3 Zrotation Yrotation Xrotation
				JOINT RightFoot
				{
					OFFSET -2.54143 -6.98254 0.00000
					CHANNELS 3 Zrotation Yrotation Xrotation
					JOINT RightToeBase
					{
						OFFSET -0.23309 -0.64041 1.93119
						CHANNELS 3 Zrotation Yrotation Xrotation
						End Site
						{
							OFFSET -0.00000 -0.00000 1.02013
						}
					}
				}
			}
		}
	}
	JOINT LowerBack
	{
		OFFSET 0 0 0
		CHANNELS 3 Zrotation Yrotation Xrotation
		JOINT Spine
		{
			OFFSET -0.07096 2.10460 -0.27878
			CHANNELS 3 Zrotation Yrotation Xrotation
			JOINT Spine1
			{
				OFFSET -0.00826 2.13662 -0.08279
				CHANNELS 3 Zrotation Yrotation Xrotation
				JOINT Neck
				{
					OFFSET 0 0 0
					CHANNELS 3 Zrotation Yrotation Xrotation
					JOINT Neck1
					{
						OFFSET 0.03239 1.77799 0.24435
						CHANNELS 3 Zrotation Yrotation Xrotation
						JOINT Head
						{
							OFFSET 0.01026 1.74194 -0.49664
							CHANNELS 3 Zrotation Yrotation Xrotation
							End Site
							{
								OFFSET 0.00170 1.83057 -0.19653
							}
						}
					}
				}
				JOINT LeftShoulder
				{
					OFFSET 0 0 0
					CHANNELS 3 Zrotation Yrotation Xrotation
					JOINT LeftArm
					{
						OFFSET 3.19178 1.35907 -0.31412
						CHANNELS 3 Zrotation Yrotation Xrotation
						JOINT LeftForeArm
						{
							OFFSET 4.85247 -0.00000 -0.00000
							CHANNELS 3 Zrotation Yrotation Xrotation
							JOINT LeftHand
							{
								OFFSET 3.55584 -0.00000 0.00000
								CHANNELS 3 Zrotation Yrotation Xrotation
								JOINT LeftFingerBase
								{
									OFFSET 0 0 0
									CHANNELS 3 Zrotation Yrotation Xrotation
									JOINT LeftHandIndex1
									{
										OFFSET 0.69320 -0.00000 0.00000
										CHANNELS 3 Zrotation Yrotation Xrotation
										End Site
										{
											OFFSET 0.55888 -0.00000 0.00000
										}
									}
								}
								JOINT LThumb
								{
									OFFSET 0 0 0
									CHANNELS 3 Zrotation Yrotation Xrotation
									End Site
									{
										OFFSET 0.56741 -0.00000 0.56741
									}
								}
							}
						}
					}
				}
				JOINT RightShoulder
				{
					OFFSET 0 0 0
					CHANNELS 3 Zrotation Yrotation Xrotation
					JOINT RightArm
					{
						OFFSET -3.28999 1.24191 -0.26899
						CHANNELS 3 Zrotation Yrotation Xrotation
						JOINT RightForeArm
						{
							OFFSET -4.64462 -0.00000 0.00000
							CHANNELS 3 Zrotation Yrotation Xrotation
							JOINT RightHand
							{
								OFFSET -3.40703 -0.00000 0.00000
								CHANNELS 3 Zrotation Yrotation Xrotation
								JOINT RightFingerBase
								{
									OFFSET 0 0 0
									CHANNELS 3 Zrotation Yrotation Xrotation
									JOINT RightHandIndex1
									{
										OFFSET -0.61958 -0.00000 0.00000
										CHANNELS 3 Zrotation Yrotation Xrotation
										End Site
										{
											OFFSET -0.49952 -0.00000 0.00000
										}
									}
								}
								JOINT RThumb
								{
									OFFSET 0 0 0
									CHANNELS 3 Zrotation Yrotation Xrotation
									End Site
									{
										OFFSET -0.50715 -0.00000 0.50715
									}
								}
							}
						}
					}
				}
			}
		}
	}
}
MOTION
Frames: 14
Frame Time: .0083333
48.5988 16.5964 4.3235 351.9050 186.9960 367.6000 0.0000 0.0000 0.0000 -40.3446 6.0112 6.9314 0.0843 1.8733 5.1557 1.0839 -10.9930 -18.9982 0.0039 0.4052 1.1134 0.0000 0.0000 0.0000 -4.3317 7.3644 -37.2296 -5.2223 -13.6298 41.7743 -0.6446 0.4192 -15.0335 -0.2357 3.1248 -8.6263 -11.8383 -0.8786 12.0640 -1.8208 -3.3051 5.7907 5.1039 -2.2163 -0.0997 5.1015 5.7705 -21.5229 -7.7372 7.5041 32.8976 -2.8814 2.0295 15.8184 0.0000 -0.0000 0.0000 -72.7628 -11.1142 55.7990 55.4314 -54.9642 -30.5689 -0.0000 0.0000 -22.9914 35.1294 -23.5939 -15.7276 -7.1250 0.0000 -0.0000 3.5914 1.9244 -3.4757 0.0000 -0.0000 0.0000 72.4756 -34.0286 63.4973 -33.6059 43.7906 -13.8396 0.0000 -0.0000 -28.6776 -32.6703 -33.5320 19.5058 7.1250 -0.0000 -0.0000 -0.3247 -68.1906 0.1808
48.6311 16.5594 4.0678 351.7200 187.9810 367.7320 0.0000 0.0000 0.0000 -39.4935 7.2407 7.7285 0.0756 1.7735 4.8801 0.8248 -13.5006 -17.5403 0.1058 2.0973 5.7747 0.0000 0.0000 0.0000 -4.1572 6.4838 -37.9935 -4.4992 -12.7966 38.6117 -0.6245 0.3253 -14.8249 -0.4359 4.2367 -11.7435 -12.1338 -1.0700 11.7514 -1.9284 -3.5362 5.7330 5.1594 -2.3365 0.0642 5.5415 5.7862 -21.6953 -7.7989 7.3705 33.1456 -3.0230 2.0099 15.9941 0.0000 0.0000 0.0000 -71.5788 -12.8241 55.5067 57.5194 -55.6119 -32.2854 -0.0000 0.0000 -22.2177 35.4466 -23.6963 -15.9658 -7.1250 0.0000 -0.0000 3.7625 1.7199 -3.6558 0.0000 0.0000 0.0000 72.0400 -36.3095 64.6435 -34.5613 44.4963 -14.5050 0.0000 -0.0000 -29.0632 -32.4927 -33.2680 19.2579 7.1250 -0.0000 -0.0000 -0.2252 -67.8569 0.1237
48.6541 16.5130 3.8126 351.3700 188.7970 367.7800 0.0000 0.0000 0.0000 -38.8301 8.6396 8.6211 0.0645 1.6382 4.5068 0.5530 -15.4173 -16.0346 0.2324 3.1026 8.5644 0.0000 0.0000 0.0000 -4.1750 5.7245 -38.5391 -3.8322 -11.9338 35.4981 -0.5951 0.3455 -14.4610 -0.6711 5.2387 -14.5907 -12.5596 -1.2126 11.4693 -2.0981 -3.7349 5.7382 5.2141 -2.4565 0.2789 5.5999 5.8346 -21.5576 -7.5529 7.3475 33.0896 -2.9265 2.0544 15.9192 0.0000 -0.0000 0.0000 -70.2888 -14.3761 55.1105 59.6981 -56.2289 -34.0900 -0.0000 0.0000 -21.6233 35.8940 -23.7268 -16.2360 -7.1250 0.0000 -0.0000 4.0246 1.5590 -3.9234 0.0000 -0.0000 0.0000 71.3367 -38.4194 66.2004 -35.6894 45.2982 -15.3013 0.0000 -0.0000 -29.4482 -32.5746 -33.2106 19.2869 7.1250 -0.0000 -0.0000 -0.3761 -67.8213 0.2063
48.6698 16.4620 3.5547 351.1300 189.5330 367.6770 0.0000 0.0000 0.0000 -38.7183 8.5402 10.3311 0.0543 1.5038 4.1363 0.6033 -14.9518 -16.2529 0.1219 2.2511 6.2002 0.0000 0.0000 0.0000 -4.0257 4.8384 -38.8832 -3.2337 -11.0642 32.4965 -0.5342 0.7185 -13.5777 -0.8002 5.7095 -15.9438 -12.8426 -1.3284 11.2542 -2.2306 -3.8924 5.8050 5.2252 -2.5605 0.5084 5.3991 5.7703 -21.3355 -7.2137 7.2314 32.8869 -2.7581 2.0478 15.7261 -0.0000 -0.0000 0.0000 -68.9033 -15.8560 54.6059 61.9210 -56.8005 -35.9441 -0.0000 0.0000 -20.5594 36.3334 -23.3540 -16.2539 -7.1250 0.0000 -0.0000 4.3597 1.8602 -4.2282 -0.0000 -0.0000 0.0000 70.3911 -40.3808 67.9440 -36.9186 46.1345 -16.1813 0.0000 -0.0000 -29.7188 -32.3813 -33.0799 19.0923 7.1250 -0.0000 -0.0000 -0.1759 -67.6237 0.0957
48.6850 16.4086 3.2910 350.8670 190.2060 367.5700 0.0000 0.0000 0.0000 -38.3879 8.8403 11.8117 0.0470 1.3993 3.8482 0.5074 -15.6584 -15.7627 0.1573 2.5556 7.0439 0.0000 0.0000 0.0000 -3.8651 3.9021 -39.1477 -2.7044 -10.2004 29.6283 -0.4451 1.1852 -12.2464 -0.7803 5.6395 -15.7420 -13.1441 -1.4471 10.9799 -2.3730 -4.0457 5.8920 5.2287 -2.6686 0.7931 5.4011 5.7847 -21.2678 -7.1171 7.2261 32.8426 -2.7156 2.0651 15.6826 -0.0000 -0.0000 0.0000 -67.8389 -17.3423 53.4386 62.9330 -57.0422 -36.7921 -0.0000 0.0000 -17.7820 36.2955 -23.2098 -16.1429 -7.1250 0.0000 -0.0000 4.3648 2.0365 -4.2193 -0.0000 -0.0000 0.0000 69.3465 -42.1710 69.7312 -38.0954 46.9001 -17.0352 0.0000 -0.0000 -29.7696 -32.3875 -32.8805 19.0017 7.1250 -0.0000 -0.0000 -0.2987 -67.4145 0.1611
48.6994 16.3505 3.0273 350.4480 190.7350 367.4710 0.0000 0.0000 0.0000 -38.1361 9.3946 13.0525 0.0442 1.3574 3.7327 0.3539 -16.7452 -15.0118 0.2038 2.9071 8.0202 0.0000 0.0000 0.0000 -3.9435 3.2734 -39.2549 -2.2514 -9.3712 26.9635 -0.3688 1.6474 -11.0169 -0.5668 4.8218 -13.4009 -13.7285 -1.4948 10.7480 -2.4863 -4.1393 5.9348 5.4154 -2.7505 1.0243 5.5004 5.8558 -21.3569 -7.1974 7.3078 33.0426 -2.7602 2.0863 15.8180 -0.0000 -0.0000 0.0000 -67.0638 -18.5541 52.7768 64.2119 -57.3316 -37.8669 -0.0000 0.0000 -17.1326 37.3006 -22.9228 -16.5266 -7.1250 0.0000 -0.0000 5.0240 2.0777 -4.8574 -0.0000 -0.0000 0.0000 68.0766 -43.8630 71.6250 -39.2795 47.6372 -17.9050 0.0000 -0.0000 -29.5986 -32.6469 -32.7517 19.1167 7.1250 -0.0000 -0.0000 -0.7382 -67.3568 0.3971
48.7139 16.2916 2.7633 350.1630 191.1660 367.2820 0.0000 0.0000 0.0000 -37.9694 9.4279 14.5079 0.0432 1.3412 3.6883 0.3176 -16.9534 -14.8167 0.1821 2.7483 7.5788 0.0000 0.0000 0.0000 -3.8974 2.9439 -39.1812 -1.8827 -8.6174 24.6057 -0.3070 1.9741 -9.9655 -0.3860 3.9899 -11.0483 -14.2713 -1.4794 10.6313 -2.5429 -4.1595 5.9554 5.6422 -2.7881 1.1571 5.4152 5.7812 -21.4266 -7.0994 7.1834 33.1906 -2.7348 2.0278 15.8847 -0.0000 0.0000 0.0000 -66.0965 -19.5212 52.0439 65.5208 -57.6101 -38.9705 -0.0000 0.0000 -16.1802 38.1905 -22.5998 -16.8203 -7.1250 0.0000 -0.0000 5.6219 2.1905 -5.4294 -0.0000 0.0000 0.0000 66.7040 -45.4343 73.5506 -40.4284 48.3217 -18.7586 0.0000 -0.0000 -29.0575 -32.5453 -32.3282 18.8437 7.1250 -0.0000 -0.0000 -0.8225 -66.8757 0.4334
48.7325 16.2335 2.4932 350.1190 191.5640 367.0580 0.0000 0.0000 0.0000 -36.9438 10.3985 15.2793 0.0586 1.5626 4.2983 0.1727 -18.3066 -14.3877 0.1619 2.5925 7.1462 0.0000 0.0000 0.0000 -3.5385 2.7509 -39.1155 -1.6094 -8.0001 22.7144 -0.2683 2.0022 -9.2917 -0.3813 3.9654 -10.9793 -14.6106 -1.4625 10.4822 -2.5831 -4.1447 5.9794 5.7710 -2.8011 1.2887 5.1380 5.7664 -21.0699 -6.6740 7.1331 32.9958 -2.5065 2.0498 15.6626 0.0000 -0.0000 0.0000 -65.0208 -20.4195 50.9734 66.1078 -57.7292 -39.4665 -0.0000 0.0000 -14.2563 38.6862 -22.6892 -17.1647 -7.1250 0.0000 -0.0000 5.9005 1.9361 -5.7286 0.0000 -0.0000 0.0000 65.2911 -46.8387 75.5336 -41.6185 49.0001 -19.6521 0.0000 -0.0000 -28.3875 -32.2611 -31.6915 18.3461 7.1250 -0.0000 -0.0000 -0.7547 -66.1122 0.3845
48.7461 16.1755 2.2179 350.1120 191.9530 366.8320 0.0000 0.0000 0.0000 -36.5670 10.1236 16.7892 0.0599 1.5798 4.3459 0.1838 -18.1523 -14.3854 0.1546 2.5333 6.9820 0.0000 0.0000 0.0000 -3.3406 3.0496 -38.8271 -1.4151 -7.5234 21.2755 -0.2892 1.5510 -9.7341 -0.2610 3.2869 -9.0786 -14.8480 -1.4513 10.2661 -2.6518 -4.1138 6.0118 5.8082 -2.8054 1.4516 5.4295 5.7905 -21.1513 -6.8131 7.0679 33.3658 -2.6479 2.0145 15.8792 -0.0000 0.0000 0.0000 -64.1351 -21.0173 50.5203 67.0216 -57.9078 -40.2399 -0.0000 0.0000 -14.6042 39.9667 -23.1853 -18.2613 -7.1250 0.0000 -0.0000 6.5577 0.9496 -6.4910 -0.0000 0.0000 0.0000 63.9703 -48.0686 77.1988 -42.8460 49.6685 -20.5833 0.0000 -0.0000 -28.0667 -31.5045 -31.1612 17.5963 7.1250 -0.0000 -0.0000 0.0048 -65.3254 -0.0024
48.7517 16.1206 1.9420 349.9920 192.3790 366.5970 0.0000 0.0000 0.0000 -36.0750 10.2666 17.6763 0.0876 1.9088 5.2538 0.1085 -18.6827 -14.0850 0.1696 2.6533 7.3148 0.0000 0.0000 0.0000 -3.3231 3.3278 -38.5981 -1.3249 -7.2895 20.5759 -0.3641 1.0255 -11.0855 -0.0617 1.6029 -4.4094 -15.0681 -1.4457 10.1002 -2.7649 -4.1027 6.0453 5.7932 -2.8189 1.5866 5.7179 5.8329 -21.4753 -6.7756 6.9862 33.7379 -2.7115 2.0042 16.1446 -0.0000 -0.0000 0.0000 -63.5030 -21.4365 49.2293 66.1571 -57.7391 -39.5082 -0.0000 0.0000 -12.6692 40.5385 -24.2558 -19.3586 -7.1250 0.0000 -0.0000 6.6589 -0.5014 -6.7626 -0.0000 -0.0000 0.0000 62.9315 -49.0696 78.4058 -43.7153 50.1233 -21.2482 0.0000 -0.0000 -27.6151 -30.5470 -30.6860 16.7609 7.1250 -0.0000 -0.0000 1.0288 -64.5460 -0.4868
48.7608 16.0659 1.6634 349.7320 192.6520 366.3120 0.0000 0.0000 0.0000 -36.7939 9.1227 19.4208 0.1024 2.0631 5.6800 0.4503 -16.4008 -15.6442 0.0066 0.5253 1.4434 0.0000 0.0000 0.0000 -3.2701 3.4559 -38.7018 -1.3549 -7.3684 20.8116 -0.3698 0.4492 -11.3381 -0.1695 2.6519 -7.3111 -15.4741 -1.3098 9.9654 -2.9052 -3.9508 6.1141 5.8423 -2.7760 1.7258 5.5233 5.7209 -21.3339 -6.5408 6.8041 33.7822 -2.6156 1.9360 16.0930 -0.0000 -0.0000 0.0000 -62.8943 -21.6975 48.6487 65.9837 -57.7043 -39.3616 -0.0000 0.0000 -12.4459 40.8257 -24.2152 -19.5126 -7.1250 0.0000 -0.0000 6.8354 -0.5519 -6.9504 -0.0000 -0.0000 0.0000 62.2225 -49.8953 79.3930 -44.0679 50.3036 -21.5191 0.0000 -0.0000 -26.3946 -30.6728 -29.8756 16.4593 7.1250 -0.0000 -0.0000 0.4808 -63.7181 -0.2182
48.7668 16.0117 1.3842 349.1380 192.9440 366.0880 0.0000 0.0000 0.0000 -37.3184 8.8539 20.3888 0.1497 2.4930 6.8701 0.5425 -15.7818 -16.1132 0.0037 -0.3908 -1.0739 0.0000 0.0000 0.0000 -3.7643 3.7842 -38.6629 -1.4359 -7.5763 21.4343 -0.3785 -0.1279 -11.6686 -0.2466 3.1955 -8.8234 -16.3890 -1.1767 10.0394 -3.0038 -3.8970 6.0585 6.2347 -2.7782 1.6829 5.4568 5.7169 -21.2060 -6.4608 6.7828 33.8762 -2.5800 1.9230 16.0997 0.0000 0.0000 0.0000 -62.5177 -21.5115 48.4209 66.0111 -57.7098 -39.3847 -0.0000 0.0000 -13.6524 41.9421 -24.2231 -20.2378 -7.1250 0.0000 -0.0000 7.4823 -0.9534 -7.6711 0.0000 0.0000 0.0000 61.0809 -50.5318 80.6052 -44.8339 50.6868 -22.1101 0.0000 -0.0000 -25.8263 -30.2262 -29.7125 16.1075 7.1250 -0.0000 -0.0000 0.9738 -63.4208 -0.4352
48.7672 15.9667 1.1013 348.6670 193.3010 365.8380 0.0000 0.0000 0.0000 -37.8183 8.3767 21.3423 0.2147 2.9832 8.2319 0.6267 -15.0655 -16.4952 0.0403 -1.2953 -3.5617 0.0000 0.0000 0.0000 -4.3641 4.4063 -38.0895 -1.4947 -7.7230 21.8758 -0.3647 -0.5201 -11.6081 -0.0993 2.0324 -5.5951 -16.9792 -1.0900 10.1395 -3.1596 -3.8846 6.0022 6.3936 -2.7861 1.6000 5.2630 5.6395 -21.0185 -6.2575 6.6435 34.0155 -2.4956 1.8580 16.0914 -0.0000 0.0000 0.0000 -62.1110 -21.2136 48.0309 65.4342 -57.5922 -38.8974 -0.0000 0.0000 -14.5340 42.0916 -24.0347 -20.1989 -7.1250 0.0000 -0.0000 7.6126 -0.7830 -7.7846 -0.0000 0.0000 0.0000 60.2694 -50.8835 81.6216 -45.2447 50.8878 -22.4285 0.0000 -0.0000 -25.3572 -29.8345 -29.5630 15.7992 7.1250 -0.0000 -0.0000 1.3977 -63.1547 -0.6160
48.7619 15.9234 0.8074 348.9440 193.5500 365.4570 0.0000 0.0000 0.0000 -37.0928 8.4705 22.0196 0.2999 3.5211 9.7330 0.5887 -15.1197 -16.2029 0.0577 -1.5501 -4.2638 0.0000 0.0000 0.0000 -4.0708 5.2688 -37.2017 -1.5370 -7.8266 22.1885 -0.3143 -0.5186 -10.7900 -0.0000 0.0192 -0.0526 -16.7438 -1.0214 10.0151 -3.1548 -3.7322 5.9753 6.2585 -2.6942 1.5854 5.0057 5.6095 -20.8433 -6.0159 6.5980 34.1052 -2.3610 1.8337 16.0644 -0.0000 -0.0000 0.0000 -62.8426 -20.8191 47.2472 64.1319 -57.3141 -37.7996 -0.0000 0.0000 -13.6486 41.5268 -24.2340 -19.9757 -7.1250 0.0000 -0.0000 7.2390 -0.8186 -7.4007 -0.0000 -0.0000 0.0000 59.9979 -51.0616 81.8815 -45.1548 50.8441 -22.3587 0.0000 -0.0000 -24.9542 -29.3662 -29.3348 15.4120 7.1250 -0.0000 -0.0000 1.8751 -62.7854 -0.8102
